<?xml version="1.0" encoding="UTF-8" ?>
<!DOCTYPE svg PUBLIC "-//W3C//DTD SVG 1.1//EN" "http://www.w3.org/Graphics/SVG/1.1/DTD/svg11.dtd">
<svg width="512pt" height="512pt" viewBox="0 0 512 512" version="1.1" xmlns="http://www.w3.org/2000/svg">
<g id="#000000ff">
<path fill="#000000" opacity="1.00" d=" M 27.49 0.00 L 484.22 0.00 C 492.68 2.86 500.47 8.21 505.33 15.80 C 509.40 21.61 511.12 28.64 512.00 35.58 L 512.00 230.21 C 489.25 245.85 465.78 260.45 442.74 275.67 C 442.61 253.66 442.77 231.65 442.65 209.65 C 451.44 206.33 459.41 200.56 464.48 192.58 C 471.63 181.60 472.80 167.06 467.67 155.04 C 464.29 147.07 458.34 140.20 450.85 135.84 C 440.45 129.62 427.17 128.54 415.88 132.90 C 405.33 136.88 396.65 145.51 392.55 156.01 C 388.54 166.04 388.86 177.67 393.36 187.48 C 397.94 197.76 407.03 205.77 417.67 209.33 C 417.80 236.90 417.74 264.48 417.70 292.05 C 396.90 305.30 376.50 319.19 355.56 332.20 C 355.51 275.79 355.47 219.38 355.58 162.97 C 365.48 159.63 374.15 152.55 378.95 143.22 C 384.86 132.23 385.21 118.42 379.76 107.19 C 374.44 95.63 363.34 86.91 350.82 84.59 C 342.04 82.65 332.69 84.22 324.70 88.22 C 314.60 93.31 306.88 102.81 303.93 113.72 C 300.71 124.83 302.89 137.23 309.30 146.80 C 314.32 154.36 321.95 160.07 330.54 162.96 C 330.68 224.90 330.65 286.84 330.57 348.79 C 309.82 362.22 289.12 375.73 268.43 389.25 C 268.26 298.08 268.40 206.91 268.36 115.74 C 278.54 112.18 287.43 104.75 292.17 95.00 C 298.51 82.55 297.60 66.81 289.91 55.15 C 281.13 41.14 263.20 33.59 247.07 37.49 C 234.86 40.04 224.31 48.79 219.03 60.02 C 213.29 72.17 214.18 87.22 221.45 98.55 C 226.46 106.65 234.47 112.63 243.41 115.80 C 243.35 206.80 243.52 297.81 243.34 388.82 C 222.71 375.11 201.88 361.71 181.17 348.13 C 181.18 286.40 181.15 224.68 181.19 162.95 C 192.18 159.26 201.50 150.77 205.97 140.05 C 210.16 130.29 210.23 118.92 206.14 109.12 C 199.41 92.04 180.04 80.84 161.90 84.43 C 149.23 86.35 137.94 94.96 132.27 106.38 C 126.82 117.11 126.66 130.30 131.70 141.21 C 136.00 150.66 144.09 158.28 153.74 162.08 C 154.91 162.58 156.77 163.16 156.21 164.91 C 156.19 220.34 156.26 275.78 156.17 331.22 C 155.14 330.82 154.15 330.37 153.18 329.86 C 133.38 316.92 113.59 303.96 93.76 291.06 C 93.69 263.92 93.80 236.77 93.70 209.63 C 103.23 206.06 111.79 199.52 116.74 190.51 C 123.86 178.01 123.52 161.63 115.79 149.47 C 106.28 133.43 84.97 126.00 67.54 132.67 C 54.72 137.19 44.68 148.65 41.77 161.91 C 36.89 181.40 49.19 203.39 68.51 209.07 C 69.06 230.93 68.65 252.83 68.72 274.71 C 45.81 259.78 23.02 244.68 0.00 229.93 L 0.00 33.38 C 1.48 18.04 12.71 4.39 27.49 0.00 Z" />
<path fill="#000000" opacity="1.00" d=" M 251.57 61.76 C 255.19 61.21 259.18 60.96 262.53 62.74 C 268.34 65.35 272.11 71.76 271.64 78.09 C 271.23 86.04 264.08 93.01 256.05 92.86 C 247.57 93.28 239.54 85.57 240.19 76.98 C 239.68 70.01 245.08 63.68 251.57 61.76 Z" />
<path fill="#000000" opacity="1.00" d=" M 164.89 108.80 C 167.30 108.59 169.72 108.60 172.14 108.77 C 177.94 110.49 182.60 115.01 184.21 120.88 C 185.71 128.45 181.39 136.44 174.22 139.26 C 170.53 140.54 166.54 140.54 162.87 139.21 C 158.81 137.50 155.45 134.28 153.84 130.15 C 153.59 129.40 153.10 127.89 152.85 127.14 C 151.46 118.99 157.04 110.95 164.89 108.80 Z" />
<path fill="#000000" opacity="1.00" d=" M 327.75 119.79 C 329.87 113.74 335.49 108.79 342.06 108.61 C 348.89 108.03 355.75 112.59 358.01 119.04 C 359.14 122.28 358.86 125.80 358.25 129.12 C 356.48 134.26 352.25 138.50 346.88 139.72 C 338.96 142.07 330.32 136.75 327.82 129.09 C 327.11 126.02 327.17 122.87 327.75 119.79 Z" />
<path fill="#000000" opacity="1.00" d=" M 76.51 155.69 C 81.34 154.54 86.85 154.93 90.85 158.14 C 97.81 163.11 99.22 174.07 93.70 180.61 C 89.72 185.85 82.24 188.03 76.08 185.72 C 69.23 183.46 64.64 176.02 65.56 168.90 C 66.30 162.88 70.74 157.53 76.51 155.69 Z" />
<path fill="#000000" opacity="1.00" d=" M 425.50 155.68 C 429.69 154.77 434.46 154.73 438.23 157.09 C 444.37 160.47 447.53 168.30 445.54 175.02 C 443.44 183.57 433.32 188.97 425.07 185.72 C 416.77 183.11 412.06 172.86 415.62 164.88 C 417.31 160.56 421.09 157.11 425.50 155.68 Z" />
</g>
<g id="#ffffffff">
<path fill="#ffffff" opacity="1.00" d=" M 247.07 37.49 C 263.20 33.59 281.13 41.14 289.91 55.15 C 297.60 66.81 298.51 82.55 292.17 95.00 C 287.43 104.75 278.54 112.18 268.36 115.74 C 268.40 206.91 268.26 298.08 268.43 389.25 C 289.12 375.73 309.82 362.22 330.57 348.79 C 330.65 286.84 330.68 224.90 330.54 162.96 C 321.95 160.07 314.32 154.36 309.30 146.80 C 302.89 137.23 300.71 124.83 303.93 113.72 C 306.88 102.81 314.60 93.31 324.70 88.22 C 332.69 84.22 342.04 82.65 350.82 84.59 C 363.34 86.91 374.44 95.63 379.76 107.19 C 385.21 118.42 384.86 132.23 378.95 143.22 C 374.15 152.55 365.48 159.63 355.58 162.97 C 355.47 219.38 355.51 275.79 355.56 332.20 C 376.50 319.19 396.90 305.30 417.70 292.05 C 417.74 264.48 417.80 236.90 417.67 209.33 C 407.03 205.77 397.94 197.76 393.36 187.48 C 388.86 177.67 388.54 166.04 392.55 156.01 C 396.65 145.51 405.33 136.88 415.88 132.90 C 427.17 128.54 440.45 129.62 450.85 135.84 C 458.34 140.20 464.29 147.07 467.67 155.04 C 472.80 167.06 471.63 181.60 464.48 192.58 C 459.41 200.56 451.44 206.33 442.65 209.65 C 442.77 231.65 442.61 253.66 442.74 275.67 C 465.78 260.45 489.25 245.85 512.00 230.21 L 512.00 260.27 C 480.55 280.28 449.49 300.91 418.19 321.17 C 368.22 353.67 318.32 386.29 268.30 418.73 C 268.06 449.71 268.35 480.69 268.16 511.67 L 269.03 512.00 L 243.42 512.00 C 243.34 480.70 243.57 449.39 243.30 418.10 C 185.03 380.31 126.98 342.19 68.80 304.27 C 45.98 289.28 22.99 274.52 0.29 259.34 L 0.00 260.15 L 0.00 229.93 C 23.02 244.68 45.81 259.78 68.72 274.71 C 68.65 252.83 69.06 230.93 68.51 209.07 C 49.19 203.39 36.89 181.40 41.77 161.91 C 44.68 148.65 54.72 137.19 67.54 132.67 C 84.97 126.00 106.28 133.43 115.79 149.47 C 123.52 161.63 123.86 178.01 116.74 190.51 C 111.79 199.52 103.23 206.06 93.70 209.63 C 93.80 236.77 93.69 263.92 93.76 291.06 C 113.59 303.96 133.38 316.92 153.18 329.86 C 154.15 330.37 155.14 330.82 156.17 331.22 C 156.26 275.78 156.19 220.34 156.21 164.91 C 156.77 163.16 154.91 162.58 153.74 162.08 C 144.09 158.28 136.00 150.66 131.70 141.21 C 126.66 130.30 126.82 117.11 132.27 106.38 C 137.94 94.96 149.23 86.35 161.90 84.43 C 180.04 80.84 199.41 92.04 206.14 109.12 C 210.23 118.92 210.16 130.29 205.97 140.05 C 201.50 150.77 192.18 159.26 181.19 162.95 C 181.15 224.68 181.18 286.40 181.17 348.13 C 201.88 361.71 222.71 375.11 243.34 388.82 C 243.52 297.81 243.35 206.80 243.41 115.80 C 234.47 112.63 226.46 106.65 221.45 98.55 C 214.18 87.22 213.29 72.17 219.03 60.02 C 224.31 48.79 234.86 40.04 247.07 37.49 M 251.57 61.76 C 245.08 63.68 239.68 70.01 240.19 76.98 C 239.54 85.57 247.57 93.28 256.05 92.86 C 264.08 93.01 271.23 86.04 271.64 78.09 C 272.11 71.76 268.34 65.35 262.53 62.74 C 259.18 60.96 255.19 61.21 251.57 61.76 M 164.89 108.80 C 157.04 110.95 151.46 118.99 152.85 127.14 C 153.10 127.89 153.59 129.40 153.84 130.15 C 155.45 134.28 158.81 137.50 162.87 139.21 C 166.54 140.54 170.53 140.54 174.22 139.26 C 181.39 136.44 185.71 128.45 184.21 120.88 C 182.60 115.01 177.94 110.49 172.14 108.77 C 169.72 108.60 167.30 108.59 164.89 108.80 M 327.75 119.79 C 327.17 122.87 327.11 126.02 327.82 129.09 C 330.32 136.75 338.96 142.07 346.88 139.72 C 352.25 138.50 356.48 134.26 358.25 129.12 C 358.86 125.80 359.14 122.28 358.01 119.04 C 355.75 112.59 348.89 108.03 342.06 108.61 C 335.49 108.79 329.87 113.74 327.75 119.79 M 76.51 155.69 C 70.74 157.53 66.30 162.88 65.56 168.90 C 64.64 176.02 69.23 183.46 76.08 185.72 C 82.24 188.03 89.72 185.85 93.70 180.61 C 99.22 174.07 97.81 163.11 90.85 158.14 C 86.85 154.93 81.34 154.54 76.51 155.69 M 425.50 155.68 C 421.09 157.11 417.31 160.56 415.62 164.88 C 412.06 172.86 416.77 183.11 425.07 185.72 C 433.32 188.97 443.44 183.57 445.54 175.02 C 447.53 168.30 444.37 160.47 438.23 157.09 C 434.46 154.73 429.69 154.77 425.50 155.68 Z" />
</g>
<g id="#ff0000ff">
<path fill="#ff0000" opacity="1.00" d=" M 0.00 260.15 L 0.29 259.34 C 22.99 274.52 45.98 289.28 68.80 304.27 C 126.98 342.19 185.03 380.31 243.30 418.10 C 243.57 449.39 243.34 480.70 243.42 512.00 L 26.58 512.00 C 12.39 507.47 1.69 494.25 0.00 479.47 L 0.00 260.15 Z" />
<path fill="#ff0000" opacity="1.00" d=" M 418.19 321.17 C 449.49 300.91 480.55 280.28 512.00 260.27 L 512.00 476.71 C 511.23 485.55 507.91 494.27 502.00 500.96 C 497.47 505.98 491.60 509.74 485.23 512.00 L 269.03 512.00 L 268.16 511.67 C 268.35 480.69 268.06 449.71 268.30 418.73 C 318.32 386.29 368.22 353.67 418.19 321.17 Z" />
</g>
</svg>
